<svg xmlns="http://www.w3.org/2000/svg" width="48" height="48" viewBox="0 0 48 48"><path fill="none" stroke="currentColor" stroke-linecap="round" stroke-linejoin="round" d="M20.24 7.936c-.03 8.436-2.982 11.972-3.183 14.481s.694 6.108.582 9.169c-.067 1.847-.433 4.3-.753 5.494s-.55 5.87 1.352 6.162c1.903.293 10.41.484 11.916-.27s1.213-3.478 1.007-5.892s-.961-3.632-1.061-5.494c-.164-3.063.673-7.431.77-9.17c.097-1.737-3.199-7.19-3.292-14.48zm6.036 21.95l-4.605.043" stroke-width="1"/><path fill="none" stroke="currentColor" stroke-linecap="round" stroke-linejoin="round" d="M26.276 26.22h-4.611v8.072h4.61M21.137 4.5h5.503c.477 0 .919.427 1.162 1.123l.808 2.313h-9.308l.707-2.281c.22-.71.655-1.155 1.128-1.155" stroke-width="1"/></svg>