<svg xmlns="http://www.w3.org/2000/svg" width="48" height="48" viewBox="0 0 48 48"><path fill="none" stroke="currentColor" stroke-linecap="round" stroke-linejoin="round" d="M39.468 12.62c-2.603 1.145-5.1 2.538-9.026 1.885c5.135-5.87 10.597-3.93 13.058-2.026c-1.748-.824-2.884-.362-4.031.142c.16-.333-.268-.568-1.25-.71m-9.353 2.665c-2.196-.18-5.726-.078-7.884 1.92c-4.007 3.708-7.836 3.985-11.631 2.807c6.896-8.97 16.807-8.992 19.515-4.727m7.064 6.37c-1.403 2.388-2.458 5.413-8.205 5.26c-3.152-1.727-6.102-4.361-12.558-1.635c-4.4 1.857-7.19.786-10.667-.64c3.998-.107 8.107.666 11.995-2.19c6.033-4.432 12.104-7.106 19.436-.796zM28 29.424a2.644 2.644 0 0 1 2.65 2.638v2.712a2.644 2.644 0 0 1-2.638 2.65H28a2.644 2.644 0 0 1-2.65-2.638v-2.712a2.644 2.644 0 0 1 2.638-2.65zM9.508 36.548c.49.639 1.105.876 1.961.876h1.184a1.996 1.996 0 0 0 1.996-1.995v-.01a1.996 1.996 0 0 0-1.996-1.995h-1.306a2 2 0 0 1-1.998-1.997h0c0-1.106.897-2.003 2.002-2.003h1.178c.856 0 1.471.238 1.962.877m2.858 3.108h5.3m0-3.985v8m-5.3-8v8m16 0v-8h2.62c1.48 0 2.68 1.203 2.68 2.687s-1.2 2.687-2.68 2.687h-2.62" stroke-width="1"/></svg>