<svg xmlns="http://www.w3.org/2000/svg" width="48" height="48" viewBox="0 0 48 48"><path fill="none" stroke="currentColor" stroke-linecap="round" stroke-linejoin="round" d="M38.5 5.5h-29a4 4 0 0 0-4 4v29a4 4 0 0 0 4 4h29a4 4 0 0 0 4-4v-29a4 4 0 0 0-4-4m-26 16.552V10.224" stroke-width="1"/><path fill="none" stroke="currentColor" stroke-linecap="round" stroke-linejoin="round" d="M12.5 10.224h4.929a2.95 2.95 0 0 1 2.957 2.94v.017h0a2.95 2.95 0 0 1-2.941 2.957h-4.946" stroke-width="1"/><path fill="none" stroke="currentColor" stroke-linecap="round" stroke-linejoin="round" d="M12.5 16.138h4.929a2.95 2.95 0 0 1 2.957 2.94v.017h0a2.95 2.95 0 0 1-2.941 2.957h-4.946m12.733 0a2.95 2.95 0 0 1-2.957-2.94v-1.824a2.95 2.95 0 0 1 2.94-2.957h.017a2.95 2.95 0 0 1 2.957 2.94v1.824a2.95 2.95 0 0 1-2.94 2.957zm8.215-10.185v8.707a1.47 1.47 0 0 0 1.462 1.478h.591m-5.421-10.185v10.185m1.807-7.721h1.561m0 0h1.56" stroke-width="1"/><circle cx="25.232" cy="23.777" r=".75" fill="currentColor"/><rect width="5.914" height="7.836" x="16.023" y="29.94" fill="none" stroke="currentColor" stroke-linecap="round" stroke-linejoin="round" rx="2.957" ry="2.957" stroke-width="1"/><rect width="5.914" height="7.836" x="23.915" y="29.94" fill="none" stroke="currentColor" stroke-linecap="round" stroke-linejoin="round" rx="2.957" ry="2.957" stroke-width="1"/><path fill="none" stroke="currentColor" stroke-linecap="round" stroke-linejoin="round" d="M10.361 31.862h3.844m-3.844 5.914V25.948h5.914m21.365 6.949a2.957 2.957 0 0 0-2.958-2.957h0a2.957 2.957 0 0 0-2.957 2.957v1.922a2.957 2.957 0 0 0 2.957 2.957h0a2.957 2.957 0 0 0 2.957-2.957m0 2.957V25.948" stroke-width="1"/></svg>