<svg xmlns="http://www.w3.org/2000/svg" width="32" height="32" viewBox="0 0 32 32"><g fill="currentColor"><path d="M7 19H6a2 2 0 1 1 0-4h1zm18 0h1a2 2 0 1 0 0-4h-1zm-7-1a2 2 0 1 1 4 0zm-7 1a1 1 0 1 1 2 0zm7-7a2 2 0 1 1 4 0zm0 0h-2a1 1 0 1 1 2 0m-2 7a2 2 0 0 0-2 2h4a2 2 0 0 0-2-2m-.25-10a.75.75 0 1 1-1.5 0a.75.75 0 0 1 1.5 0m-5 7a.75.75 0 1 1-1.5 0a.75.75 0 0 1 1.5 0M21 14.75a.75.75 0 1 0 0-1.5a.75.75 0 0 0 0 1.5m-6.689-2.024a1.75 1.75 0 1 0-3.5 0a4.495 4.495 0 0 0 4.495 4.495a1.75 1.75 0 1 0 0-3.5a.995.995 0 0 1-.995-.995"/><path d="M26.829 22.943C25.91 28.091 21.412 32 16 32s-9.911-3.908-10.829-9.057a6.001 6.001 0 0 1 .235-11.914C6.703 6.397 10.954 3 16 3s9.297 3.397 10.594 8.029a6 6 0 0 1 .235 11.914M6 13a4 4 0 0 0 0 8h1a9 9 0 1 0 18 0h1a4 4 0 0 0 0-8h-1.055q.055.492.055 1a9 9 0 1 1-17.945-1zm10 9a8 8 0 1 0 0-16a8 8 0 0 0 0 16"/></g></svg>