<svg xmlns="http://www.w3.org/2000/svg" width="48" height="48" viewBox="0 0 48 48"><g fill="currentColor" fill-rule="evenodd" clip-rule="evenodd"><path d="M23 14.5a8.5 8.5 0 1 1-17 0a8.5 8.5 0 0 1 17 0m-4.66-2.545a1 1 0 0 1-.282 1.386l-6.011 3.985a1 1 0 1 1-1.105-1.667l6.012-3.985a1 1 0 0 1 1.386.281M42 14.5a8.5 8.5 0 1 1-17 0a8.5 8.5 0 0 1 17 0m-10.097-4.32a1 1 0 0 1 1.285.59l2.5 6.766a1 1 0 1 1-1.876.693l-2.5-6.765a1 1 0 0 1 .59-1.284M14.5 42a8.5 8.5 0 1 0 0-17a8.5 8.5 0 0 0 0 17m.467-4.787a1 1 0 0 0 1.845-.77l-2.779-6.656a1 1 0 1 0-1.845.77zM42 33.5a8.5 8.5 0 1 1-17 0a8.5 8.5 0 0 1 17 0m-5.011-3.008a1 1 0 0 1-.105 1.41l-5.462 4.71a1 1 0 0 1-1.306-1.514l5.462-4.71a1 1 0 0 1 1.41.104"/><path d="M14.5 21a6.5 6.5 0 0 0 5.93-9.164a3 3 0 0 1-1.267 3.172l-6.012 3.985a3 3 0 0 1-3.409-.064A6.48 6.48 0 0 0 14.5 21m-5.93-3.835a6.5 6.5 0 0 1 10.689-7.093a3 3 0 0 0-3.41-.065l-6.012 3.985a3 3 0 0 0-1.267 3.173m2.373-1.507a1 1 0 0 0 1.104 1.668l6.012-3.984a1 1 0 0 0-1.104-1.668zM14.5 23a8.5 8.5 0 1 0 0-17a8.5 8.5 0 0 0 0 17m22.216-2.85a6.5 6.5 0 0 0-4.45-12.033a3 3 0 0 1 2.797 1.96l2.501 6.766a3 3 0 0 1-.848 3.307m-1.984.733Q34.133 21 33.5 21a6.5 6.5 0 0 1-3.216-12.15a3 3 0 0 0-.848 3.308l2.5 6.765a3 3 0 0 0 2.796 1.96m-1.544-10.112a1 1 0 1 0-1.876.693l2.5 6.765a1 1 0 1 0 1.876-.693zM17.949 39.01a6.5 6.5 0 0 0-4.947-11.837a3 3 0 0 1 2.877 1.843l2.779 6.655a3 3 0 0 1-.709 3.339m-1.953.816a6.5 6.5 0 0 1-4.943-11.838a3 3 0 0 0-.71 3.34l2.778 6.655a3 3 0 0 0 2.875 1.843m-1.03-2.614a1 1 0 0 0 1.846-.77v-.001l-2.779-6.655a1 1 0 1 0-1.845.77zM33.5 40a6.5 6.5 0 0 0 5.549-9.887a3 3 0 0 1-.859 3.304l-5.462 4.71m4.936-9.619a6.5 6.5 0 0 0-9.713 8.378a3 3 0 0 1 .859-3.303l5.462-4.71m3.392-.365a3 3 0 0 0-3.392.365zM33.5 40a6.47 6.47 0 0 1-4.162-1.507zm-4.162-1.507a3 3 0 0 0 3.39-.366zm7.545-6.59l-5.46 4.708v.001a1 1 0 0 1-1.307-1.514m5.462-4.71l-5.46 4.708zM33.5 23a8.5 8.5 0 1 0 0-17a8.5 8.5 0 0 0 0 17m-19 19a8.5 8.5 0 1 0 0-17a8.5 8.5 0 0 0 0 17m19 0a8.5 8.5 0 1 0 0-17a8.5 8.5 0 0 0 0 17"/></g></svg>