<svg xmlns="http://www.w3.org/2000/svg" width="48" height="48" viewBox="0 0 48 48"><g fill="currentColor" fill-rule="evenodd" clip-rule="evenodd"><path d="M24 23a8.5 8.5 0 1 0 0-17a8.5 8.5 0 0 0 0 17m1.298-12.01a1 1 0 0 0-1.993-.167l-.602 7.187a1 1 0 0 0 1.992.167zM14.5 42a8.5 8.5 0 1 0 0-17a8.5 8.5 0 0 0 0 17m1.843-5.243a1 1 0 0 0 1.414-1.414l-5.1-5.1a1 1 0 0 0-1.414 1.414zM42 31.5a8.5 8.5 0 1 1-17 0a8.5 8.5 0 0 1 17 0m-4.241-1.755a1 1 0 0 1-.544 1.306l-6.668 2.748a1 1 0 0 1-.762-1.85l6.668-2.747a1 1 0 0 1 1.306.543"/><path d="m23.305 10.823l-1.994-.167a3 3 0 0 1 2.168-2.635a6.5 6.5 0 0 0-1.067 12.784a3 3 0 0 1-1.703-2.962l.602-7.187zm1.993.167l-.602 7.187a1 1 0 0 1-1.994-.167m0-.001l.602-7.185m1.219 10.155a6.5 6.5 0 0 0 1.063-12.784a3 3 0 0 1 1.705 2.962l-.602 7.187a3 3 0 0 1-2.166 2.635m-4.738 16.306a6.5 6.5 0 0 0-9.071-9.069a3 3 0 0 1 3.357.613l5.1 5.1a3 3 0 0 1 .614 3.355m-1.5 1.5a6.5 6.5 0 0 1-9.069-9.071a3 3 0 0 0 .613 3.358l5.1 5.1a3 3 0 0 0 3.355.614m-1.944-2.03l-5.098-5.098a1 1 0 0 1 1.414-1.414h.001l5.098 5.099m-1.415 1.414l.002.001a1 1 0 0 0 1.414-1.414m19.458-4.292l.762 1.849l-6.668 2.748a3 3 0 0 1-3.336-.725a6.5 6.5 0 0 0 11.86-4.891a3 3 0 0 1-1.856 2.868zm1.812-2.973a3 3 0 0 0-3.336-.726l-6.668 2.749a3 3 0 0 0-1.857 2.867a6.5 6.5 0 0 1 11.86-4.89m-9.242 3.872l6.668-2.748a1 1 0 0 1 .762 1.849l-6.667 2.747h-.001a1 1 0 0 1-.762-1.848M24 23a8.5 8.5 0 1 0 0-17a8.5 8.5 0 0 0 0 17m1.298-12.01a1 1 0 0 0-1.993-.167M14.5 42a8.5 8.5 0 1 0 0-17a8.5 8.5 0 0 0 0 17m19-2a8.5 8.5 0 1 0 0-17a8.5 8.5 0 0 0 0 17"/></g></svg>