<svg xmlns="http://www.w3.org/2000/svg" width="24" height="24" viewBox="0 0 24 24"><path fill="currentColor" fill-rule="evenodd" d="m8.713 4.041l-.58-2.166l-4.399 2.903l1.293 4.825c-.66.238-1.157.869-.997 1.67l1.805 9.906a1 1 0 0 0 .984.821H17.18a1 1 0 0 0 .984-.82l1.805-9.907c.176-.88-.44-1.553-1.195-1.728l.761-7.503l-5.153-.055l-.409 3.3l-.974.326v-3zm8.032 6.222q-.354.226-.745.454V4.613l-.014.004l.054-.612l1.162.012zM14 11.715q-.526.211-1 .334V7.72l1-.334zm-3 .334V5.387l-1 .334v5.994q.526.211 1 .334m-3-1.332v-1.61L6.919 5.072l-.88.581l1.24 4.625q.343.218.721.44" clip-rule="evenodd"/></svg>