<svg xmlns="http://www.w3.org/2000/svg" width="48" height="48" viewBox="0 0 48 48"><path fill="currentColor" fill-rule="evenodd" d="M7.028 33.899a4 4 0 0 1 0-5.657L28.242 7.029a4 4 0 0 1 5.656 0l7.071 7.07a4 4 0 0 1 0 5.657L19.756 40.97a4 4 0 0 1-5.656 0zm9.9-9.193a1.25 1.25 0 1 1-1.767 1.768a1.25 1.25 0 0 1 1.767-1.768M19.403 24a1.25 1.25 0 1 0-1.768-1.768A1.25 1.25 0 0 0 19.403 24m2.475-4.243a1.25 1.25 0 1 1-1.768 1.768a1.25 1.25 0 0 1 1.768-1.768m2.475-.707a1.25 1.25 0 1 0-1.769-1.767a1.25 1.25 0 0 0 1.769 1.767m2.474-4.242a1.25 1.25 0 1 1-1.767 1.767a1.25 1.25 0 0 1 1.767-1.767m2.475-.707a1.25 1.25 0 1 0-1.768-1.768a1.25 1.25 0 0 0 1.768 1.768m3.182 1.414a1.25 1.25 0 1 1-1.768 1.768a1.25 1.25 0 0 1 1.768-1.768M14.454 28.95a1.25 1.25 0 1 0-1.769-1.768a1.25 1.25 0 0 0 1.768 1.768m-2.83 1.06l-.53 2.299l-1.767-1.768zm11.668 2.829a1.25 1.25 0 1 0-1.768-1.768a1.25 1.25 0 0 0 1.768 1.768m2.475-4.243a1.25 1.25 0 1 1-1.768 1.768a1.25 1.25 0 0 1 1.768-1.768m2.475-.707a1.25 1.25 0 1 0-1.768-1.768a1.25 1.25 0 0 0 1.768 1.768m2.475-4.243a1.25 1.25 0 1 1-1.768 1.768a1.25 1.25 0 0 1 1.768-1.768m2.474-.707a1.25 1.25 0 1 0-1.768-1.767a1.25 1.25 0 0 0 1.768 1.767m2.475-4.242a1.25 1.25 0 1 1-1.767 1.767a1.25 1.25 0 0 1 1.767-1.767m-3.889-7.071a1.25 1.25 0 1 0-1.767-1.768a1.25 1.25 0 0 0 1.767 1.768m6.364 4.596a1.25 1.25 0 1 1-1.768 1.768a1.25 1.25 0 0 1 1.768-1.768m-3.182-1.414a1.25 1.25 0 1 0-1.768-1.768a1.25 1.25 0 0 0 1.768 1.768M20.817 33.545a1.25 1.25 0 1 1-1.768 1.768a1.25 1.25 0 0 1 1.768-1.768m-2.475 4.243a1.25 1.25 0 1 0-1.768-1.768a1.25 1.25 0 0 0 1.768 1.768m-3.182-4.95a1.25 1.25 0 1 1-1.767 1.768a1.25 1.25 0 0 1 1.767-1.768m2.475-.707a1.25 1.25 0 1 0-1.768-1.768a1.25 1.25 0 0 0 1.768 1.768" clip-rule="evenodd"/></svg>