<svg xmlns="http://www.w3.org/2000/svg" width="24" height="24" viewBox="0 0 24 24"><path fill="currentColor" fill-rule="evenodd" d="M11.25 14.11a3.75 3.75 0 0 1-3 3.674v4.325c0 .41-.34.75-.75.75s-.75-.34-.75-.75v-4.325a3.75 3.75 0 0 1-3-3.675v-9c0-2.07 1.68-3.75 3.75-3.75s3.75 1.68 3.75 3.75zm-6 0c0 1.24 1.01 2.25 2.25 2.25s2.25-1.01 2.25-2.25v-9c0-1.24-1.01-2.25-2.25-2.25S5.25 3.87 5.25 5.11zm2 .5c0 .41.34.75.75.75s.75-.34.75-.75c0-.81-.43-1.24-.72-1.53c-.23-.23-.28-.3-.28-.47s.05-.24.28-.47c.29-.29.72-.72.72-1.53s-.43-1.24-.72-1.53c-.23-.23-.28-.3-.28-.47s.05-.24.28-.47c.29-.29.72-.72.72-1.53s-.43-1.24-.72-1.53c-.23-.23-.28-.3-.28-.47c0-.41-.34-.75-.75-.75s-.75.34-.75.75c0 .81.43 1.24.72 1.53c.23.23.28.3.28.47s-.05.24-.28.47c-.29.29-.72.72-.72 1.53s.43 1.24.72 1.53c.23.23.28.3.28.47s-.05.24-.28.47c-.29.29-.72.72-.72 1.53s.43 1.24.72 1.53c.23.23.28.3.28.47m9 0c0 .41.34.75.75.75s.75-.34.75-.75c0-.81-.43-1.24-.72-1.53c-.23-.23-.28-.3-.28-.47s.05-.24.28-.47c.29-.29.72-.72.72-1.53s-.43-1.24-.72-1.53c-.23-.23-.28-.3-.28-.47s.05-.24.28-.47c.29-.29.72-.72.72-1.53s-.43-1.24-.72-1.53c-.23-.23-.28-.3-.28-.47c0-.41-.34-.75-.75-.75s-.75.34-.75.75c0 .81.43 1.24.72 1.53c.23.23.28.3.28.47s-.05.24-.28.47c-.29.29-.72.72-.72 1.53s.43 1.24.72 1.53c.23.23.28.3.28.47s-.05.24-.28.47c-.29.29-.72.72-.72 1.53s.43 1.24.72 1.53c.23.23.28.3.28.47m-.5 7.5c0 .41.34.75.75.75s.75-.34.75-.75v-4.326a3.75 3.75 0 0 0 3-3.675v-9c0-2.07-1.68-3.75-3.75-3.75s-3.75 1.68-3.75 3.75v9a3.75 3.75 0 0 0 3 3.675zm.75-5.75c-1.24 0-2.25-1.01-2.25-2.25v-9c0-1.24 1.01-2.25 2.25-2.25s2.25 1.01 2.25 2.25v9c0 1.24-1.01 2.25-2.25 2.25" color="currentColor"/></svg>