<svg xmlns="http://www.w3.org/2000/svg" width="24" height="24" viewBox="0 0 24 24"><path fill="currentColor" fill-rule="evenodd" d="M5.768 11.676c0 .41-.34.75-.75.75s-.75-.34-.75-.75c0-4.57 3.52-8.34 8-8.72v-.78c0-.41.34-.75.75-.75s.75.34.75.75v.78c4.48.38 8 4.15 8 8.72c0 .41-.34.75-.75.75s-.75-.34-.75-.75c0-4-3.25-7.25-7.25-7.25s-7.25 3.25-7.25 7.25m-1.751 1.75h17.96c.41 0 .75.34.75.75s-.34.75-.75.75h-1.67l-2.59 2.85c-1.14 1.24-1.74 1.89-2.56 2.28c-.83.4-1.73.46-3.37.56l-3.25.21c-.67.04-.98.07-1.19.16c-.2.09-.4.29-.9.79l-.93.93c-.15.15-.34.22-.53.22s-.38-.07-.53-.22a.754.754 0 0 1 0-1.06l.93-.93c.55-.55.88-.88 1.35-1.09c.46-.21.93-.25 1.72-.29l3.25-.21l.172-.012c1.386-.092 2.1-.14 2.648-.408c.552-.257 1.036-.785 1.99-1.826l.04-.044l1.74-1.91h-1.49l-1.57 1.57q-.085.08-.142.136a2 2 0 0 1-.158.144c-.42.37-.96.6-1.55.64c-.07.01-.18.01-.39.01h-3.5c-.41 0-.75-.34-.75-.75s.34-.75.75-.75h2.73c-.1-.49-.48-.87-.98-.97c-.12-.03-.35-.03-.74-.03h-.78c-.97 0-1.46 0-1.86.1c-.32.07-.6.19-.84.34c-.37.22-.71.56-1.4 1.25l-3.08 3.09c-.29.29-.77.29-1.06 0a.754.754 0 0 1 0-1.06l3.08-3.08c.25-.25.46-.46.65-.64h-1.2c-.41 0-.75-.34-.75-.75s.34-.75.75-.75m10.105 2.076l.065-.066l.51-.51h-1.24c.11.22.2.46.25.71c.02.05.03.11.03.16c.09-.05.17-.1.25-.17a1 1 0 0 0 .135-.124" color="currentColor"/></svg>