<svg xmlns="http://www.w3.org/2000/svg" width="15" height="15" viewBox="0 0 15 15"><path fill="currentColor" d="M11.433 10.089h2.49v.75h-2.07a4.8 4.8 0 0 1 1.622 2.301l-.71.242a4 4 0 0 0-1.74-2.197a1.78 1.78 0 0 1-1.035.454l-1.553 1.346H6.52l-1.535-1.362a2 2 0 0 1-1.093-.44a4 4 0 0 0-1.743 2.199l-.71-.242a4.8 4.8 0 0 1 1.622-2.301H.99v-.75h2.494l.863-.677l-1.014-1.655a2 2 0 0 1-.27.029a2.02 2.02 0 0 1-2.052-2.08c0-2.08 1.979-4.16 1.979-4.16l-.737 4.447l1.726-.001L4.99 2.985v2.996a2.1 2.1 0 0 1-.699 1.412l.854 1.394l.084-.066a3.87 3.87 0 0 1 4.478 0l.06.047l.87-1.415a2.12 2.12 0 0 1-.643-1.372V2.985l.983 3.007l1.755.001l-.737-4.447s1.982 2.08 1.982 4.16a2.02 2.02 0 0 1-2.056 2.08a2 2 0 0 1-.344-.037l-1.01 1.646l.84.659c.013.01.014.024.025.035"/></svg>