<svg xmlns="http://www.w3.org/2000/svg" width="24" height="24" viewBox="0 0 24 24"><path fill="currentColor" d="M4.135 19.596q-.698 0-1.195-.497t-.498-1.195v-1q0-.698.497-1.195t1.195-.498t1.196.498q.497.497.497 1.195v1q0 .698-.497 1.195t-1.195.497m16.915.212h-1.454q-.211 0-.323-.153q-.111-.153-.061-.357l.236-.863q.05-.143.18-.236t.274-.062l1.254.18q.292.05.472.246q.18.195.18.478q0 .323-.227.545t-.531.222m-3.72-.37l-2.676-.892q-.162-.06-.242-.22t0-.32l.673-1.533q.08-.161.245-.22t.326.028l2.246 1.304q.13.056.174.177q.043.12.013.257l-.243 1.127q-.05.181-.192.265q-.142.083-.323.028m-4.65-1.75l-1.873-.481q-.273-.062-.444-.278q-.172-.216-.172-.505V15.5q0-.46.143-.892q.142-.433.482-.714q.125-.113.299-.116q.173-.003.336.091l2.3 1.265q.141.08.192.23q.05.15-.005.286l-.798 1.821q-.06.138-.19.203t-.27.014m-5.115-.88q-.143 0-.26-.113t-.139-.287q-.175-1.183-1.07-1.892T4 13.808h-.5q-.142 0-.225-.083t-.083-.225t.083-.225t.225-.083h.9q.486 0 .924-.125t.863-.361q.138-.075.304-.075t.303.075q.5.261.998.374q.499.112 1.054.112q.248 0 .35.226q.104.226-.019.45q-.206.369-.287.788t-.082.844v.904q0 .161-.12.282q-.12.122-.281.122zM4.43 11.769q-.828 0-1.38-.562T2.5 9.842q0-.372.137-.725t.41-.626L4.5 7.056V5.269q0-.212.144-.356t.357-.144t.356.144t.143.356v1.6q0 .298-.124.567t-.341.487l-1.256 1.3q-.127.127-.203.292t-.076.33q0 .386.272.655t.653.27q.258 0 .752-.341q.292-.243.62-.401q.327-.159.705-.159t.715.156t.625.404q.177.132.354.236t.379.104q.381 0 .653-.274t.272-.657q0-.165-.066-.326q-.067-.162-.193-.289l-1.295-1.3q-.217-.217-.332-.487q-.114-.27-.114-.567v-1.6q0-.212.144-.356t.357-.144t.356.144t.143.356v1.787L9.954 8.49q.273.278.41.627t.136.726q0 .795-.552 1.36q-.551.565-1.379.565q-.417 0-.756-.161t-.63-.423q-.158-.114-.32-.215t-.363-.1q-.194 0-.702.315q-.292.242-.643.41t-.724.174m2.069-7"/></svg>