<svg xmlns="http://www.w3.org/2000/svg" width="24" height="24" viewBox="0 0 24 24"><path fill="currentColor" d="m20.317 18.52l-.901-.903l1.057-10.233h-9.011l-.135-1h4.615v-4h1v4h4.616zm-.226 4.01L.867 3.309l.714-.714l19.223 19.223zM2.442 18.693v-1h13.231v1zM3.058 22q-.271 0-.443-.182q-.173-.182-.173-.434V21h13.231v.385q0 .251-.162.433t-.453.182zm7.146-10.783v1q-.279-.038-.564-.05t-.582-.013q-2.13 0-3.5.644t-1.825 1.587h9.638l1 1H2.442q0-1.737 1.79-2.984t4.826-1.247q.298 0 .583.012q.284.013.563.051m-1.146 3.167"/></svg>