<svg xmlns="http://www.w3.org/2000/svg" width="24" height="24" viewBox="0 0 24 24"><g fill="none" fill-rule="evenodd"><path d="m12.594 23.258l-.012.002l-.071.035l-.02.004l-.014-.004l-.071-.036q-.016-.004-.024.006l-.004.01l-.017.428l.005.02l.01.013l.104.074l.015.004l.012-.004l.104-.074l.012-.016l.004-.017l-.017-.427q-.004-.016-.016-.018m.264-.113l-.014.002l-.184.093l-.01.01l-.003.011l.018.43l.005.012l.008.008l.201.092q.019.005.029-.008l.004-.014l-.034-.614q-.005-.019-.02-.022m-.715.002a.02.02 0 0 0-.027.006l-.006.014l-.034.614q.001.018.017.024l.015-.002l.201-.093l.01-.008l.003-.011l.018-.43l-.003-.012l-.01-.01z"/><path fill="currentColor" d="m12.707 13.293l3.379 3.379A3.121 3.121 0 0 1 13.879 22h-.201A3.3 3.3 0 0 1 12 21.546a3.3 3.3 0 0 1-1.678.454h-.2a3.121 3.121 0 0 1-2.208-5.328l3.379-3.38a1 1 0 0 1 1.414 0ZM18.88 7a3.12 3.12 0 0 1 3.116 2.944l.005.177v.201A3.3 3.3 0 0 1 21.547 12c.252.429.41.921.446 1.45l.008.228v.2a3.121 3.121 0 0 1-5.178 2.349l-.15-.141l-3.38-3.379a1 1 0 0 1-.082-1.32l.083-.094l3.379-3.379A3.12 3.12 0 0 1 18.879 7ZM5.12 7c.76 0 1.49.276 2.057.773l.15.141l3.38 3.379a1 1 0 0 1 .082 1.32l-.083.094l-3.379 3.379a3.122 3.122 0 0 1-5.323-2.03L2 13.879v-.201c0-.615.167-1.188.454-1.678a3.3 3.3 0 0 1-.446-1.45L2 10.323v-.2A3.12 3.12 0 0 1 5.121 7Zm5.201-5a3.3 3.3 0 0 1 1.678.454a3.3 3.3 0 0 1 1.45-.446L13.677 2h.2a3.121 3.121 0 0 1 2.349 5.178l-.141.15l-3.379 3.38a1 1 0 0 1-1.32.082l-.094-.083l-3.379-3.379a3.121 3.121 0 0 1 2.03-5.323L10.121 2h.201Z"/></g></svg>