<svg xmlns="http://www.w3.org/2000/svg" width="24" height="24" viewBox="0 0 24 24"><path fill="currentColor" d="M5.294 0A5.296 5.296 0 0 0 0 5.294v13.411a5.294 5.294 0 1 0 10.588 0V5.294A5.31 5.31 0 0 0 5.295 0zm4.141 11.423H1.153V5.294a4.142 4.142 0 0 1 8.284 0zm12.802 3.16a5.689 5.689 0 0 0-9.265 6.523l-.015-.028zm-8.667 7.371a5.689 5.689 0 0 0 9.265-6.523l.015.028zM18.361.801h.005a3.68 3.68 0 0 1 2.865 5.99l.005-.007L17.187.993c.35-.121.752-.192 1.171-.193h.001zm0-.629h-.006c-.778 0-1.507.208-2.136.571l.021-.011l4.916 7.03A4.31 4.31 0 0 0 18.365.168h-.01h.001zm-2.862 2.007l4.049 5.791a3.68 3.68 0 0 1-4.044-5.798zm.08-.981a4.306 4.306 0 0 0 4.93 7.019l-.021.011z"/></svg>