<svg xmlns="http://www.w3.org/2000/svg" width="48" height="48" viewBox="0 0 48 48"><g fill="currentColor" fill-rule="evenodd" clip-rule="evenodd"><path d="M29.657 42.384a2 2 0 0 1-2.829 0L5.615 21.171a2 2 0 0 1 0-2.828L18.343 5.615a2 2 0 0 1 2.829 0l21.213 21.213a2 2 0 0 1 0 2.828zm-.707-6.364a1 1 0 1 0-1.414 1.415a1 1 0 0 0 1.414-1.415m-4.243-2.828a1 1 0 1 1 1.414 1.414a1 1 0 0 1-1.414-1.414m-1.414-2.829a1 1 0 1 0-1.414 1.415a1 1 0 0 0 1.414-1.415m-4.243-2.828a1 1 0 1 1 1.415 1.414a1 1 0 0 1-1.415-1.414m-1.414-2.829a1 1 0 1 0-1.414 1.415a1 1 0 0 0 1.414-1.415m-4.243-2.828a1 1 0 1 1 1.415 1.415a1 1 0 0 1-1.415-1.415M11.98 19.05a1 1 0 1 0-1.414 1.414a1 1 0 0 0 1.414-1.414m18.385 14.142a1 1 0 1 1 1.415 1.414a1 1 0 0 1-1.415-1.414m-1.414-2.829a1 1 0 1 0-1.414 1.415a1 1 0 0 0 1.414-1.415m-4.243-2.828a1 1 0 1 1 1.415 1.414a1 1 0 0 1-1.415-1.414m-1.414-2.829a1 1 0 1 0-1.414 1.415a1 1 0 0 0 1.414-1.415m-4.242-2.828a1 1 0 1 1 1.414 1.414a1 1 0 0 1-1.414-1.414m-1.415-2.828a1 1 0 1 0-1.414 1.414a1 1 0 0 0 1.414-1.414m-4.242-2.829a1 1 0 1 1 1.414 1.414a1 1 0 0 1-1.414-1.414m21.213 14.142a1 1 0 1 0-1.414 1.415a1 1 0 0 0 1.414-1.415m-4.242-2.828a1 1 0 1 1 1.414 1.413a1 1 0 0 1-1.415-1.413m-1.415-2.829a1 1 0 1 0-1.414 1.415a1 1 0 0 0 1.414-1.415m-4.242-2.828a1 1 0 1 1 1.414 1.414a1 1 0 0 1-1.415-1.414m-1.414-2.829a1 1 0 1 0-1.415 1.415a1 1 0 0 0 1.415-1.415m-4.243-2.828a1 1 0 1 1 1.414 1.414a1 1 0 0 1-1.414-1.414m-1.414-2.828a1 1 0 1 0-1.415 1.414a1 1 0 0 0 1.415-1.415m19.799 14.142a1 1 0 1 0-1.415 1.413a1 1 0 0 0 1.415-1.413m-4.243-2.829a1 1 0 1 1 1.414 1.414a1 1 0 0 1-1.414-1.414m-1.414-2.829a1 1 0 1 0-1.414 1.415a1 1 0 0 0 1.414-1.415m-4.243-2.828a1 1 0 1 1 1.414 1.415a1 1 0 0 1-1.414-1.415m-1.414-2.828a1 1 0 1 0-1.414 1.414a1 1 0 0 0 1.414-1.414m-4.242-2.829a1 1 0 1 1 1.414 1.414a1 1 0 0 1-1.415-1.414m-1.415-2.828a1 1 0 1 0-1.414 1.414a1 1 0 0 0 1.414-1.414"/><path d="m26.132 38.86l2.11 2.11l2.103-2.102a3 3 0 0 1-4.213-.008m-.022-.022a3 3 0 0 1-.863-1.944a3 3 0 0 1-1.954-.874a3 3 0 0 1-.874-1.954a3 3 0 0 1-1.954-.874a3 3 0 0 1-.874-1.954a3 3 0 0 1-1.955-.875a3 3 0 0 1-.874-1.954a3 3 0 0 1-1.954-.874a3 3 0 0 1-.874-1.954a3 3 0 0 1-1.938-.857zM11.962 24.69a3 3 0 0 1-.857-1.938a3 3 0 0 1 0-5.99c.04-.712.331-1.412.874-1.955a3 3 0 0 1 1.955-.874c.04-.711.33-1.411.874-1.955a3 3 0 0 1 1.955-.874a3 3 0 0 1 5.062-2.008L19.757 7.03L7.03 19.757zm9.97-15.486a3 3 0 0 1 .822 1.9a3 3 0 0 1 1.892.814zm2.836 2.835a3 3 0 0 1 .814 1.893a3 3 0 0 1 1.9.822zm2.821 2.822c.51.535.783 1.212.821 1.9c.69.038 1.368.313 1.903.824zm2.826 2.825a3 3 0 0 1 .824 1.903c.686.038 1.361.31 1.896.817zm2.835 2.835c.507.535.78 1.21.817 1.897a3 3 0 0 1 1.899.82zm2.826 2.827a3 3 0 0 1 .82 1.898c.69.039 1.37.314 1.906.827zm2.82 2.82a3 3 0 0 1-.028 4.176l2.103-2.102zm-.065 4.214a3 3 0 0 1-1.936.855a3 3 0 0 1-.848 1.928zm-2.836 2.835a3 3 0 0 1-1.928.849a3 3 0 0 1-.851 1.93zm-2.826 2.827c-.54.528-1.23.812-1.93.85a3 3 0 0 1-.856 1.935zm-2.816-14.155a1 1 0 1 0 .012-.012zm-1.414-1.414l.011-.012l.012-.011a1 1 0 1 0-.023.023m-4.233-4.252a1 1 0 1 0 .004-.005m-1.419-1.41a1 1 0 0 1-1.412-1.416l.012-.011a1 1 0 0 1 1.403 1.425m-2.84-2.817a1 1 0 1 1 .011-.011zm-8.472 8.473a1 1 0 1 0-.005.004l.002-.002m.003-.002l-.003.002zm1.414 1.414a1 1 0 0 1 1.412 1.416l-.012.012a1 1 0 0 1-1.403-1.426m2.84 2.817l-.011.011l-.011.012a1 1 0 1 0 .022-.023m4.243 4.243a1 1 0 1 0-.023.023l.012-.012zm1.414 1.414l-.011.011l-.011.012a1 1 0 1 0 1.437 0l-.012-.012l-.012-.012a1 1 0 0 0-1.39.001m8.463-2.806a1 1 0 1 0 .023-.023l-.012.012zm-1.415-1.414l.012-.011l.012-.012a1 1 0 1 0-.023.023m-4.23-4.254a1 1 0 1 0 .002-.003m-2.842-2.814a1 1 0 0 0 1.423 1.405m-1.4-1.428l-.012.011l-.011.012m.023-.023a1 1 0 0 1 1.405 1.423m-4.257 1.428a1 1 0 1 0 .023-.022l-.011.01v.001zm-1.414-1.414l.011-.011l.012-.012a1 1 0 1 0-.023.023m2.829-2.829l.011-.01l.011-.012a1 1 0 1 0-.022.023m4.241 11.291l.012.012l.012.012a1 1 0 0 0 1.39 0l.013-.012l.011-.012a1 1 0 0 0-1.423-1.404m-1.414-1.415a1 1 0 1 0-.005.005m.005-.005l-.003.003zm4.252 4.234l-.012.011l-.012.012a1 1 0 1 0 .024-.023m-2.853-1.415a1 1 0 0 1 .012-1.402zm9.912-2.817a1 1 0 1 0-1.414-1.414a1 1 0 0 0 1.414 1.414m-7.071 11.315a1 1 0 1 0 1.414-1.415a1 1 0 0 0-1.414 1.415m-2.829-2.829a1 1 0 1 0 1.414-1.414a1 1 0 0 0-1.414 1.414m5.657 0a1 1 0 1 0 1.415-1.414a1 1 0 0 0-1.415 1.414m-16.97-16.97a1 1 0 1 0 1.414-1.415a1 1 0 0 0-1.414 1.414m19.799 14.141a1 1 0 1 0 1.414-1.414a1 1 0 0 0-1.414 1.414m-16.97-16.97a1 1 0 1 0 1.414-1.415a1 1 0 0 0-1.415 1.415M36.02 28.949a1 1 0 1 0 1.415-1.415a1 1 0 0 0-1.415 1.415m-9.193 13.435a2 2 0 0 0 2.829 0l12.728-12.728a2 2 0 0 0 0-2.828L21.172 5.615a2 2 0 0 0-2.829 0L5.615 18.343a2 2 0 0 0 0 2.828z"/></g></svg>