<svg xmlns="http://www.w3.org/2000/svg" width="48" height="48" viewBox="0 0 48 48"><g fill="currentColor"><path d="M25.2 40.418a.6.6 0 0 0-.6-.597c-.331 0-.6.267-.6.597s.269.597.6.597s.6-.267.6-.597m-.6-3.582c.331 0 .6.267.6.597s-.269.597-.6.597a.6.6 0 0 1-.6-.597c0-.33.269-.597.6-.597m.6-2.388a.6.6 0 0 0-.6-.597c-.331 0-.6.267-.6.597s.269.597.6.597s.6-.267.6-.597m-.6-3.582c.331 0 .6.267.6.597s-.269.597-.6.597a.6.6 0 0 1-.6-.597c0-.33.269-.597.6-.597m.6-2.388a.6.6 0 0 0-.6-.597c-.331 0-.6.267-.6.597s.269.597.6.597s.6-.268.6-.597m-.6-3.582c.331 0 .6.267.6.597s-.269.597-.6.597a.6.6 0 0 1-.6-.597a.6.6 0 0 1 .6-.598m.6-2.387a.6.6 0 0 0-.6-.598a.598.598 0 1 0 0 1.194c.331 0 .6-.267.6-.596m-.6-3.583a.6.6 0 0 1 .6.597c0 .33-.269.597-.6.597a.6.6 0 0 1-.6-.597c0-.33.269-.597.6-.597m.6-2.388a.6.6 0 0 0-.6-.597a.6.6 0 0 0-.6.597c0 .33.269.597.6.597s.6-.267.6-.597m-.6-3.582a.6.6 0 0 1 .6.597c0 .33-.269.597-.6.597a.6.6 0 0 1-.6-.597c0-.33.269-.597.6-.597m.6-2.388a.6.6 0 0 0-.6-.597c-.331 0-.6.267-.6.597s.269.597.6.597s.6-.267.6-.597m-.6-3.582c.331 0 .6.267.6.597s-.269.597-.6.597a.6.6 0 0 1-.6-.597c0-.33.269-.597.6-.597m-5.76.851a1.182 1.182 0 1 1 1.672 1.671l-1.671 1.672a1.182 1.182 0 0 1-1.672-1.672zm1.672 4.834a1.18 1.18 0 0 0-1.671 0l-1.672 1.67a1.182 1.182 0 1 0 1.672 1.672l1.671-1.671a1.18 1.18 0 0 0 0-1.672m-1.672 4.834a1.182 1.182 0 1 1 1.672 1.671l-1.671 1.672a1.182 1.182 0 1 1-1.672-1.672zm1.672 4.833a1.18 1.18 0 0 0-1.671 0l-1.672 1.672a1.182 1.182 0 1 0 1.672 1.671l1.671-1.671a1.18 1.18 0 0 0 0-1.672M18.84 27.17a1.182 1.182 0 1 1 1.672 1.671l-1.671 1.672a1.182 1.182 0 1 1-1.672-1.672zm1.672 4.833a1.18 1.18 0 0 0-1.671 0l-1.672 1.672a1.182 1.182 0 1 0 1.672 1.671l1.671-1.671a1.18 1.18 0 0 0 0-1.672m-1.672 4.834a1.182 1.182 0 1 1 1.672 1.671l-1.671 1.672a1.182 1.182 0 1 1-1.672-1.672zM31.512 7.836a1.18 1.18 0 0 0-1.671 0l-1.672 1.671a1.182 1.182 0 1 0 1.672 1.672l1.671-1.672a1.18 1.18 0 0 0 0-1.671M29.84 12.67a1.182 1.182 0 1 1 1.672 1.67l-1.671 1.672a1.182 1.182 0 0 1-1.672-1.671zm1.672 4.833a1.18 1.18 0 0 0-1.671 0l-1.672 1.671a1.182 1.182 0 1 0 1.672 1.672l1.671-1.672a1.18 1.18 0 0 0 0-1.671m-1.672 4.833a1.182 1.182 0 1 1 1.672 1.672l-1.671 1.671a1.182 1.182 0 1 1-1.672-1.671zm1.672 4.834a1.18 1.18 0 0 0-1.671 0l-1.672 1.671a1.182 1.182 0 1 0 1.672 1.672l1.671-1.672a1.18 1.18 0 0 0 0-1.671m-1.672 4.833a1.182 1.182 0 1 1 1.672 1.672l-1.671 1.671a1.182 1.182 0 1 1-1.672-1.671zm1.672 4.834a1.18 1.18 0 0 0-1.671 0l-1.672 1.671a1.182 1.182 0 1 0 1.672 1.672l1.671-1.672a1.18 1.18 0 0 0 0-1.671"/><path fill-rule="evenodd" d="M16 4a4 4 0 0 0-4 4v32a4 4 0 0 0 4 4h16a4 4 0 0 0 4-4V8a4 4 0 0 0-4-4zm18 4a2 2 0 0 0-2-2H16a2 2 0 0 0-2 2v32a2 2 0 0 0 2 2h16a2 2 0 0 0 2-2z" clip-rule="evenodd"/></g></svg>