<svg xmlns="http://www.w3.org/2000/svg" width="24" height="24" viewBox="0 0 24 24"><g fill="currentColor"><path d="M14.29 12.75a.757.757 0 0 0 .764-.75a.757.757 0 0 0-.764-.75a.757.757 0 0 0-.763.75c0 .414.341.75.763.75m3.055-.75c0 .414-.342.75-.764.75a.757.757 0 0 1-.763-.75c0-.414.342-.75.763-.75c.422 0 .764.336.764.75m-9.927.75A.757.757 0 0 0 8.18 12a.757.757 0 0 0-.763-.75a.757.757 0 0 0-.764.75c0 .414.342.75.764.75m3.055-.75c0 .414-.342.75-.764.75a.757.757 0 0 1-.763-.75c0-.414.342-.75.763-.75c.422 0 .764.336.764.75m1.528.75a.757.757 0 0 0 .763-.75a.757.757 0 0 0-.764-.75a.757.757 0 0 0-.763.75c0 .414.342.75.763.75m-3.298 3.934c.383.397.37 1.03-.028 1.415l-.645.623a.998.998 0 1 1-1.384-1.439l.644-.622a1 1 0 0 1 1.413.023m2.892 1.416a.998.998 0 1 0-1.385-1.438l-.644.621a.998.998 0 1 0 1.385 1.438zm2.948-1.416c.383.397.37 1.03-.028 1.415l-.645.623a.998.998 0 1 1-1.385-1.439l.645-.622a1 1 0 0 1 1.413.023m2.892 1.416a.998.998 0 1 0-1.385-1.438l-.644.621a.998.998 0 1 0 1.385 1.438zm-8.732-4.296c.383.397.37 1.03-.028 1.415l-.645.623a.998.998 0 1 1-1.384-1.439l.644-.622a1 1 0 0 1 1.413.023m2.892 1.416a.998.998 0 1 0-1.385-1.438l-.644.621a.998.998 0 1 0 1.385 1.438zm2.948-1.416c.383.397.37 1.03-.028 1.415l-.645.623a.998.998 0 1 1-1.385-1.439l.645-.622a1 1 0 0 1 1.413.023m2.892 1.416a.998.998 0 1 0-1.385-1.438l-.644.621a.998.998 0 1 0 1.385 1.438zM8.701 8.184c.383.397.37 1.03-.028 1.415l-.645.623a.998.998 0 1 1-1.384-1.439l.644-.622a1 1 0 0 1 1.413.023M11.593 9.6a.998.998 0 1 0-1.385-1.438l-.644.621a.998.998 0 1 0 1.385 1.438zm2.948-1.416c.383.397.37 1.03-.028 1.415l-.645.623a.998.998 0 1 1-1.385-1.439l.645-.622a1 1 0 0 1 1.413.023M17.433 9.6a.998.998 0 1 0-1.385-1.438l-.644.621a.998.998 0 1 0 1.385 1.438zM8.701 5.304c.383.397.37 1.03-.028 1.415l-.645.623a.998.998 0 1 1-1.384-1.439l.644-.622a1 1 0 0 1 1.413.023m2.892 1.416a.998.998 0 1 0-1.385-1.438l-.644.621a.998.998 0 1 0 1.385 1.438zm2.948-1.416c.383.397.37 1.03-.028 1.415l-.645.623a.998.998 0 1 1-1.385-1.439l.645-.622a1 1 0 0 1 1.413.023m2.892 1.416a.998.998 0 1 0-1.385-1.438l-.644.621a.998.998 0 1 0 1.385 1.438z"/><path fill-rule="evenodd" d="M6.018 2a2 2 0 0 0-2 2v16a2 2 0 0 0 2 2h12.035a2 2 0 0 0 2-2V4a2 2 0 0 0-2-2zm0 2h12.035v16H6.018z" clip-rule="evenodd"/></g></svg>