<svg xmlns="http://www.w3.org/2000/svg" width="48" height="48" viewBox="0 0 48 48"><g fill="currentColor"><path d="M27.071 11.414a2 2 0 0 0-2.828 0l-2.829 2.829a2 2 0 0 0 2.829 2.828l2.828-2.828a2 2 0 0 0 0-2.829M18 25a1 1 0 1 0 0-2a1 1 0 0 0 0 2m5-1a1 1 0 1 1-2 0a1 1 0 0 1 2 0m3 1a1 1 0 1 0 0-2a1 1 0 0 0 0 2m5-1a1 1 0 1 1-2 0a1 1 0 0 1 2 0"/><path fill-rule="evenodd" d="M12 8a4 4 0 0 1 4-4h16a4 4 0 0 1 4 4v32a4 4 0 0 1-4 4H16a4 4 0 0 1-4-4zm2 0a2 2 0 0 1 2-2h16a2 2 0 0 1 2 2v15a1 1 0 1 0 0 2v15a2 2 0 0 1-2 2H16a2 2 0 0 1-2-2V25a1 1 0 1 0 0-2z" clip-rule="evenodd"/></g></svg>