<svg xmlns="http://www.w3.org/2000/svg" width="24" height="24" viewBox="0 0 24 24"><g fill="currentColor"><path d="M7.53 17.53a.75.75 0 1 0-1.06-1.06l-1 1a.75.75 0 1 0 1.06 1.06z"/><path fill-rule="evenodd" d="M11 17.5a4.5 4.5 0 1 1-9 0a4.5 4.5 0 0 1 9 0m-2 0a2.5 2.5 0 1 1-5 0a2.5 2.5 0 0 1 5 0" clip-rule="evenodd"/><path d="M7.47 8.53a.75.75 0 0 0 1.06-1.06l-1-1a.75.75 0 0 0-1.06 1.06z"/><path fill-rule="evenodd" d="M12 7.5a4.5 4.5 0 1 1-9 0a4.5 4.5 0 0 1 9 0m-2 0a2.5 2.5 0 1 1-5 0a2.5 2.5 0 0 1 5 0" clip-rule="evenodd"/><path d="M18.53 6.53a.75.75 0 0 0-1.06-1.06l-1 1a.75.75 0 0 0 1.06 1.06z"/><path fill-rule="evenodd" d="M22 6.5a4.5 4.5 0 1 1-9 0a4.5 4.5 0 0 1 9 0m-2 0a2.5 2.5 0 1 1-5 0a2.5 2.5 0 0 1 5 0" clip-rule="evenodd"/><path d="M16.793 16.75a.75.75 0 0 0 0 1.5h1.414a.75.75 0 1 0 0-1.5z"/><path fill-rule="evenodd" d="M22 17.5a4.5 4.5 0 1 1-9 0a4.5 4.5 0 0 1 9 0m-2 0a2.5 2.5 0 1 1-5 0a2.5 2.5 0 0 1 5 0" clip-rule="evenodd"/></g></svg>