<svg xmlns="http://www.w3.org/2000/svg" width="48" height="48" viewBox="0 0 48 48"><path fill="currentColor" fill-rule="evenodd" d="m12.068 20.147l-2.44-9.103l5.602-5.237L17 12.41V8.79l7-2.14v3.893l6.086-2.913l-.069 1.01L31.227 4h7.117l-2.769 9.23l1.767-.452l-2.147 8.014q.21-.202.42-.41a1.293 1.293 0 0 1 2.203 1.071L35.22 42.248A2 2 0 0 1 33.235 44h-18.47a2 2 0 0 1-1.984-1.752l-2.599-20.79a1.297 1.297 0 0 1 1.886-1.31m19.523-3.38l2.84-.852l-1.96 7.312c-1.114.907-2.177 1.65-3.207 2.227zm-4.794 9.769l1.061-15.623l-2.59 1.239l-1.006 14.81a9.2 9.2 0 0 0 2.535-.426M19 25.544c1.027.554 2.021.947 3 1.177V9.35l-3 .918zm-4.214-2.98A31 31 0 0 0 17 24.294v-4.162L14.161 9.544l-2.29 2.141zm18.528-8.756l-2.762.706L32.772 6h2.884z" clip-rule="evenodd"/></svg>