<svg xmlns="http://www.w3.org/2000/svg" width="24" height="24" viewBox="0 0 24 24"><path fill="none" stroke="currentColor" stroke-linecap="round" stroke-linejoin="round" stroke-width="1.5" d="M17 13.23s-.91-.46-1.818-.46c-1.364 0-3.182 1.845-3.182 4.615C12 20.154 14.49 22 17 22s5-1.846 5-4.615s-1.818-4.616-3.182-4.616c-.909 0-1.818.462-1.818.462m0 0c0-1.384.91-3.23 2.727-3.23M10.655 5c.896 0 1.623-.672 1.623-1.5S11.55 2 10.655 2h-5.41c-.896 0-1.622.672-1.622 1.5S4.349 5 5.246 5m5.923-.077c.956 1.766 1.74 3.36 2.22 5.077q.059.21.111.423M10.428 22h-4.1C2.747 22 2 21.31 2 18v-4.223c0-3.4 1.098-5.891 2.705-8.862" color="currentColor"/></svg>