<svg xmlns="http://www.w3.org/2000/svg" width="20" height="20" viewBox="0 0 20 20"><g fill="currentColor" fill-rule="evenodd" clip-rule="evenodd"><path d="M3.148 7.844c.554 2.152 1.72 4.35 3.05 5.679c1.85 1.851 3.584 2.517 4.972 2.57c1.377.052 2.617-.49 3.546-1.422c.367-.367.636-.937.753-1.715c.116-.77.072-1.674-.115-2.631c-.699-3.581-4.045-6.461-8.217-7.477c-1.911-.465-3.065-.305-3.632.265c-.34.34-.597.931-.671 1.798c-.073.85.04 1.864.314 2.933M.692 4.821c.091-1.06.423-2.11 1.196-2.885C3.394.426 5.806.598 7.77 1.076c4.837 1.177 8.851 4.543 9.702 8.902c.21 1.08.277 2.173.127 3.17c-.15.99-.523 1.955-1.265 2.7a7.07 7.07 0 0 1-5.312 2.084c-2.145-.082-4.374-1.096-6.47-3.191c-1.607-1.608-2.894-4.099-3.5-6.458C.744 7.096.6 5.898.691 4.82"/><path d="M11.196 6.46c.585.086.978.56.878 1.06l-.472 2.343l2.283 2.614l1.536 2.048l2.013 3.02c.294.441.114 1.002-.402 1.253s-1.173.097-1.466-.343l-1.987-2.98l-1.223-1.63l-3.762-.497c-.587-.078-.99-.547-.898-1.048c.09-.502.64-.845 1.227-.768l1.643.217l-.918-1.05L5.755 7.36c-.42-.359-.418-.94.003-1.299a1.21 1.21 0 0 1 1.52.003l2.479 2.124l.197-.98c.1-.5.657-.835 1.242-.75"/></g></svg>